<?xml version="1.0" encoding="UTF-8"?>
<svg id="Layer_1" data-name="Layer 1" xmlns="http://www.w3.org/2000/svg" viewBox="0 0 360 360">
  <defs>
    <style>
      .cls-1 {
        fill: #3498db;
      }

      .cls-1, .cls-2 {
        stroke-width: 0px;
      }

      .cls-2 {
        fill: #fff;
      }
    </style>
  </defs>
  <path class="cls-1" d="m179.87,25.57l144.42,36.36s-1.81,106.44-23.69,157.19-53.71,90.92-120.44,126.33h0c-66.73-35.42-98.61-75.58-120.49-126.33S35.83,61.93,35.83,61.93L179.87,25.57Z"/>
  <path class="cls-2" d="m102.53,172.47c19,.9,33.94,10.34,45.43,25.9,1.44,1.95,2.71,4.02,4.08,6.02,2.23,3.25,3.41,3.26,5.48-.11,5.83-9.51,11.91-18.85,18.49-27.86,27.35-37.48,61.49-67.67,100.04-93.12,1.73-1.14,3.61-2.63,5.45-.43,1.93,2.31.07,4.08-1.38,5.67-16.44,18.16-31.94,37.09-46.52,56.78-29.17,39.39-54.03,81.31-73.95,126.12-.78,1.74-1.33,3.89-3.73,3.97-2.67.09-3.19-2.22-3.94-4.11-10.81-27.14-24.03-52.96-41.96-76.16-4.15-5.36-8.66-10.44-13-15.65-1.2-1.44-3.21-2.6-2.33-4.91.95-2.5,3.27-2.05,5.3-2.1.61-.02,1.21,0,2.55,0Z"/>
</svg>