<svg width="50" height="50" viewBox="0 0 50 50" fill="none" xmlns="http://www.w3.org/2000/svg">
<path d="M39.3758 11.4583C38.9587 10.2081 37.8133 9.375 36.4583 9.375H13.5417C12.1867 9.375 11.0413 10.2081 10.6242 11.4583L6.25 22.9167V38.5417C6.25 39.6871 7.18789 40.625 8.3333 40.625H10.4167C11.5621 40.625 12.5 39.6871 12.5 38.5417V37.5H37.5V38.5417C37.5 39.6871 38.4379 40.625 39.5833 40.625H41.6667C42.8121 40.625 43.75 39.6871 43.75 38.5417V22.9167L39.3758 11.4583ZM13.5417 31.25C11.7717 31.25 10.4167 29.896 10.4167 28.125C10.4167 26.354 11.7717 25 13.5417 25C15.3117 25 16.6667 26.3541 16.6667 28.125C16.6667 29.8959 15.3117 31.25 13.5417 31.25ZM36.4583 31.25C34.6883 31.25 33.3333 29.896 33.3333 28.125C33.3333 26.354 34.6883 25 36.4583 25C38.2283 25 39.5833 26.3541 39.5833 28.125C39.5833 29.8959 38.2283 31.25 36.4583 31.25ZM10.4167 20.8333L13.5417 12.5H36.4583L39.5833 20.8333H10.4167Z" fill="#0A2647"/>
</svg>
