<svg width="67" height="67" viewBox="0 0 67 67" fill="none" xmlns="http://www.w3.org/2000/svg">
<g filter="url(#filter0_d_47_44)">
<rect x="4" y="4" width="59" height="59" rx="15" fill="#F4C542" shape-rendering="crispEdges"/>
<path d="M27.5209 29.2383C27.5209 29.5053 27.6269 29.7614 27.8157 29.9501C28.0045 30.1389 28.2606 30.245 28.5275 30.245C28.7945 30.245 29.0506 30.1389 29.2394 29.9501C29.4282 29.7614 29.5342 29.5053 29.5342 29.2383C29.5342 28.9713 29.4282 28.7153 29.2394 28.5265C29.0506 28.3377 28.7945 28.2316 28.5275 28.2316C28.2606 28.2316 28.0045 28.3377 27.8157 28.5265C27.6269 28.7153 27.5209 28.9713 27.5209 29.2383ZM33.2084 18.87C24.8326 18.87 18.0417 25.6609 18.0417 34.0367C18.0417 42.4125 24.8326 49.2033 33.2084 49.2033C41.5841 49.2033 48.375 42.4125 48.375 34.0367C48.375 25.6609 41.5841 18.87 33.2084 18.87ZM25.625 29.2383C25.625 28.4685 25.9308 27.7302 26.4751 27.1859C27.0195 26.6416 27.7577 26.3358 28.5275 26.3358C29.2973 26.3358 30.0356 26.6416 30.5799 27.1859C31.1243 27.7302 31.4301 28.4685 31.4301 29.2383C31.4301 30.0081 31.1243 30.7464 30.5799 31.2907C30.0356 31.835 29.2973 32.1408 28.5275 32.1408C27.7577 32.1408 27.0195 31.835 26.4751 31.2907C25.9308 30.7464 25.625 30.0081 25.625 29.2383ZM28.192 40.3953C28.0136 40.5726 27.7724 40.6722 27.5209 40.6722C27.2693 40.6722 27.0281 40.5726 26.8497 40.3953C26.672 40.2175 26.5722 39.9765 26.5722 39.7251C26.5722 39.4738 26.672 39.2327 26.8497 39.0549L38.2247 27.6799C38.4035 27.5073 38.643 27.4117 38.8915 27.4139C39.14 27.416 39.3778 27.5157 39.5535 27.6915C39.7293 27.8672 39.829 28.105 39.8311 28.3535C39.8333 28.6021 39.7378 28.8415 39.5651 29.0203L28.192 40.3953ZM37.8892 41.62C37.1194 41.62 36.3811 41.3142 35.8368 40.7699C35.2924 40.2255 34.9866 39.4873 34.9866 38.7175C34.9866 37.9477 35.2924 37.2094 35.8368 36.6651C36.3811 36.1208 37.1194 35.815 37.8892 35.815C38.659 35.815 39.3972 36.1208 39.9416 36.6651C40.4859 37.2094 40.7917 37.9477 40.7917 38.7175C40.7917 39.4873 40.4859 40.2255 39.9416 40.7699C39.3972 41.3142 38.659 41.62 37.8892 41.62ZM36.8825 38.7175C36.8825 38.8497 36.9085 38.9806 36.9591 39.1027C37.0097 39.2249 37.0839 39.3358 37.1773 39.4293C37.2708 39.5228 37.3818 39.5969 37.5039 39.6475C37.6261 39.6981 37.757 39.7242 37.8892 39.7242C38.0214 39.7242 38.1523 39.6981 38.2744 39.6475C38.3965 39.5969 38.5075 39.5228 38.601 39.4293C38.6945 39.3358 38.7686 39.2249 38.8192 39.1027C38.8698 38.9806 38.8959 38.8497 38.8959 38.7175C38.8959 38.5853 38.8698 38.4544 38.8192 38.3322C38.7686 38.2101 38.6945 38.0991 38.601 38.0056C38.5075 37.9122 38.3965 37.838 38.2744 37.7874C38.1523 37.7368 38.0214 37.7108 37.8892 37.7108C37.757 37.7108 37.6261 37.7368 37.5039 37.7874C37.3818 37.838 37.2708 37.9122 37.1773 38.0056C37.0839 38.0991 37.0097 38.2101 36.9591 38.3322C36.9085 38.4544 36.8825 38.5853 36.8825 38.7175Z" fill="#0A2647"/>
</g>
<defs>
<filter id="filter0_d_47_44" x="0" y="0" width="67" height="67" filterUnits="userSpaceOnUse" color-interpolation-filters="sRGB">
<feFlood flood-opacity="0" result="BackgroundImageFix"/>
<feColorMatrix in="SourceAlpha" type="matrix" values="0 0 0 0 0 0 0 0 0 0 0 0 0 0 0 0 0 0 127 0" result="hardAlpha"/>
<feOffset/>
<feGaussianBlur stdDeviation="2"/>
<feComposite in2="hardAlpha" operator="out"/>
<feColorMatrix type="matrix" values="0 0 0 0 0 0 0 0 0 0 0 0 0 0 0 0 0 0 0.15 0"/>
<feBlend mode="normal" in2="BackgroundImageFix" result="effect1_dropShadow_47_44"/>
<feBlend mode="normal" in="SourceGraphic" in2="effect1_dropShadow_47_44" result="shape"/>
</filter>
</defs>
</svg>
