<svg width="50" height="50" viewBox="0 0 50 50" fill="none" xmlns="http://www.w3.org/2000/svg">
<path d="M21.8748 28.1249H33.3332V10.4166H29.1665V3.12492C29.1665 2.84865 29.0568 2.5837 28.8614 2.38835C28.6661 2.193 28.4011 2.08325 28.1248 2.08325H15.6248C15.3486 2.08325 15.0836 2.193 14.8883 2.38835C14.6929 2.5837 14.5832 2.84865 14.5832 3.12492V10.4166H10.4165V37.4999H17.7082V32.2916C17.7082 31.1865 18.1472 30.1267 18.9286 29.3453C19.71 28.5639 20.7698 28.1249 21.8748 28.1249ZM19.7915 5.20825H23.9582V7.29158H19.7915V5.20825ZM14.5832 16.6666H29.1665V18.7499H14.5832V16.6666ZM14.5832 24.9999V22.9166H29.1665V24.9999H14.5832ZM9.37484 39.5833H17.7082V43.7499H7.2915C6.4627 43.7499 5.66785 43.4207 5.0818 42.8346C4.49574 42.2486 4.1665 41.4537 4.1665 40.6249V7.29158C4.1665 6.46278 4.49574 5.66793 5.0818 5.08188C5.66785 4.49583 6.4627 4.16659 7.2915 4.16659H13.5415V8.33325H9.37484C9.09857 8.33325 8.83362 8.443 8.63827 8.63835C8.44292 8.8337 8.33317 9.09865 8.33317 9.37492V38.5416C8.33317 38.8179 8.44292 39.0828 8.63827 39.2782C8.83362 39.4735 9.09857 39.5833 9.37484 39.5833ZM34.3748 8.33325H30.2082V4.16659H36.4582C37.287 4.16659 38.0818 4.49583 38.6679 5.08188C39.2539 5.66793 39.5832 6.46278 39.5832 7.29158V28.1249H35.4165V9.37492C35.4165 9.09865 35.3068 8.8337 35.1114 8.63835C34.9161 8.443 34.6511 8.33325 34.3748 8.33325ZM42.7082 29.1666H21.8748C21.046 29.1666 20.2512 29.4958 19.6651 30.0819C19.0791 30.6679 18.7498 31.4628 18.7498 32.2916V44.7916C18.7498 45.6204 19.0791 46.4152 19.6651 47.0013C20.2512 47.5873 21.046 47.9166 21.8748 47.9166H42.7082C43.537 47.9166 44.3318 47.5873 44.9179 47.0013C45.5039 46.4152 45.8332 45.6204 45.8332 44.7916V32.2916C45.8332 31.4628 45.5039 30.6679 44.9179 30.0819C44.3318 29.4958 43.537 29.1666 42.7082 29.1666ZM26.0415 39.5833H21.8748V37.4999H26.0415V39.5833ZM35.4165 36.4583H31.2498V37.4999H34.3748C34.6511 37.4999 34.9161 37.6097 35.1114 37.805C35.3068 38.0004 35.4165 38.2653 35.4165 38.5416V41.6666C35.4165 41.9429 35.3068 42.2078 35.1114 42.4032C34.9161 42.5985 34.6511 42.7083 34.3748 42.7083H33.3332V43.7499H31.2498V42.7083H29.1665V40.6249H33.3332V39.5833H30.2082C29.9319 39.5833 29.667 39.4735 29.4716 39.2782C29.2763 39.0828 29.1665 38.8179 29.1665 38.5416V35.4166C29.1665 35.1403 29.2763 34.8754 29.4716 34.68C29.667 34.4847 29.9319 34.3749 30.2082 34.3749H31.2498V33.3333H33.3332V34.3749H35.4165V36.4583ZM42.7082 39.5833H38.5415V37.4999H42.7082V39.5833Z" fill="#0A2647"/>
</svg>
