<svg width="50" height="50" viewBox="0 0 50 50" fill="none" xmlns="http://www.w3.org/2000/svg">
<path d="M37.5 14.5834V18.7501C37.5 19.9006 36.5673 20.8334 35.4167 20.8334H29.1667V43.7501C29.1667 44.9006 28.234 45.8334 27.0833 45.8334H22.9167C21.766 45.8334 20.8333 44.9006 20.8333 43.7501V20.8334H14.5833C13.4327 20.8334 12.5 19.9006 12.5 18.7501V14.5834C12.5 13.4328 13.4327 12.5001 14.5833 12.5001H20.8333V6.25008C20.8333 5.09944 21.766 4.16675 22.9167 4.16675H27.0833C28.234 4.16675 29.1667 5.09944 29.1667 6.25008V12.5001H35.4167C36.5673 12.5001 37.5 13.4328 37.5 14.5834Z" fill="#0A2647"/>
</svg>
