<svg width="50" height="50" viewBox="0 0 50 50" fill="none" xmlns="http://www.w3.org/2000/svg">
<path d="M47.9165 12.552V26.4687C47.9165 26.4687 44.9373 27.052 44.3228 27.1354C43.7082 27.2187 41.7915 27.8333 40.3957 26.4895C38.2498 24.4062 30.6144 16.8437 30.6144 16.8437C30.1367 16.4527 29.5464 16.2247 28.9299 16.1928C28.3134 16.161 27.7029 16.327 27.1873 16.6666C25.2498 17.7083 22.3748 19.1875 21.1769 19.7916C20.7723 20.0296 20.3137 20.1609 19.8444 20.1731C19.3751 20.1854 18.9104 20.0782 18.4939 19.8616C18.0774 19.645 17.7227 19.3261 17.4632 18.9349C17.2037 18.5437 17.0478 18.0929 17.0103 17.625C17.0328 17.0873 17.2085 16.5674 17.5167 16.1263C17.8249 15.6852 18.2528 15.3414 18.7498 15.1354C21.4894 13.4791 27.2603 10.2395 29.6665 8.95829C31.1248 8.17704 32.1769 8.11454 34.1873 9.80204C36.6561 11.8854 38.854 13.7812 38.854 13.7812C39.1202 13.9685 39.4232 14.097 39.7429 14.1581C40.0626 14.2191 40.3917 14.2114 40.7082 14.1354C43.5103 13.5416 47.9165 12.552 47.9165 12.552ZM17.5415 36.1354C17.7465 35.7048 17.8207 35.2235 17.7549 34.7512C17.6891 34.2789 17.4861 33.8362 17.1712 33.4781C16.8563 33.1199 16.4433 32.862 15.9833 32.7363C15.5232 32.6106 15.0364 32.6226 14.5832 32.7708C14.7183 32.3471 14.7404 31.8954 14.6472 31.4606C14.554 31.0257 14.3488 30.6227 14.0519 30.2916C13.73 29.9858 13.3344 29.7684 12.9037 29.6607C12.4729 29.553 12.0216 29.5586 11.5936 29.677C11.7343 29.2557 11.7593 28.8043 11.6658 28.37C11.5724 27.9357 11.364 27.5344 11.0623 27.2083C10.5324 26.7142 9.83004 26.4473 9.10572 26.4648C8.38139 26.4823 7.69274 26.7829 7.18734 27.302C6.05192 28.3958 5.33317 30.3645 6.34359 31.5208C7.354 32.677 8.51025 31.9791 9.39567 31.7708C9.15609 32.6562 8.4165 33.4687 9.32275 34.6145C10.229 35.7604 11.4894 35.0729 12.3748 34.875C12.1353 35.75 11.4269 36.6458 12.3019 37.7083C13.1769 38.7708 14.6248 38.2083 15.5728 37.9166C15.2082 38.8541 14.4165 39.875 15.4373 41.0416C16.4582 42.2083 18.7811 41.6562 19.9165 40.5729C20.1859 40.3373 20.4061 40.0508 20.5645 39.7299C20.7229 39.409 20.8164 39.06 20.8396 38.7029C20.8628 38.3458 20.8153 37.9876 20.6998 37.6489C20.5843 37.3102 20.4031 36.9976 20.1665 36.7291C19.8264 36.3975 19.4011 36.1665 18.9378 36.0617C18.4745 35.9569 17.9912 35.9824 17.5415 36.1354ZM38.3748 28.8958L29.5728 20.0833C29.164 19.6942 28.65 19.4335 28.0946 19.3335C27.5391 19.2336 26.9666 19.2987 26.4478 19.5208C25.2186 20.0625 23.6353 20.802 22.4373 21.3645C21.612 21.86 20.687 22.166 19.729 22.2604C18.7321 22.2609 17.7622 21.9363 16.9664 21.3359C16.1706 20.7355 15.5922 19.892 15.319 18.9333C15.0457 17.9746 15.0925 16.9529 15.4522 16.0232C15.8119 15.0935 16.465 14.3064 17.3123 13.7812C19.1457 12.5104 23.3644 10.2708 23.3644 10.2708C22.8364 9.72212 22.1967 9.29313 21.4887 9.0128C20.7807 8.73247 20.0208 8.60731 19.2603 8.64579C16.4478 8.64579 10.5728 12.4895 10.5728 12.4895C9.95237 12.8163 9.26503 12.9957 8.56409 13.0137C7.86315 13.0318 7.16748 12.8881 6.53109 12.5937L1.94775 11V26.927C1.94775 26.927 3.24984 27.302 4.42692 27.7812C4.69229 26.997 5.1342 26.2843 5.71859 25.6979C6.66103 24.8132 7.90511 24.3207 9.19775 24.3207C10.4904 24.3207 11.7345 24.8132 12.6769 25.6979C13.204 26.2456 13.5807 26.9202 13.7707 27.6562C14.4951 27.875 15.1504 28.2779 15.6726 28.8256C16.1948 29.3733 16.5659 30.0471 16.7498 30.7812C17.4663 30.9949 18.1156 31.3896 18.6353 31.927C19.2024 32.512 19.6018 33.2388 19.7915 34.0312C20.5354 34.2468 21.2104 34.6525 21.7498 35.2083C22.2558 35.7326 22.6302 36.3696 22.842 37.0668C23.0539 37.764 23.0973 38.5015 22.9686 39.2187C22.9686 39.2187 23.6248 39.9583 24.0103 40.3645C24.3901 40.7486 24.907 40.9659 25.4471 40.9689C25.9873 40.9718 26.5064 40.76 26.8905 40.3802C27.2745 40.0003 27.4919 39.4834 27.4948 38.9433C27.4977 38.4031 27.286 37.884 26.9061 37.5C26.9061 37.5 24.0728 34.5312 24.2915 34.302C24.5103 34.0729 28.1248 37.8125 28.1248 37.8854C28.3129 38.0728 28.5361 38.2213 28.7816 38.3225C29.0271 38.4236 29.2901 38.4754 29.5556 38.475C29.8211 38.4745 30.0839 38.4217 30.3291 38.3196C30.5742 38.2176 30.7968 38.0683 30.9842 37.8802C31.1716 37.6921 31.3201 37.4689 31.4213 37.2234C31.5225 36.9779 31.5743 36.7149 31.5738 36.4494C31.5733 36.1839 31.5205 35.9211 31.4185 35.6759C31.3164 35.4308 31.1671 35.2082 30.979 35.0208L30.7186 34.7708C30.7186 34.7708 27.1665 31.6458 27.4373 31.3437C27.7082 31.0416 32.1144 35.1875 32.1248 35.1875C32.5076 35.5322 33.0076 35.7177 33.5227 35.706C34.0377 35.6944 34.5288 35.4866 34.8957 35.125C35.2491 34.7708 35.4561 34.2964 35.4754 33.7964C35.4947 33.2964 35.3249 32.8074 34.9998 32.427C34.9998 32.427 31.6457 28.8854 31.8748 28.625C32.104 28.3645 35.4478 31.75 35.4478 31.75C35.8262 32.1298 36.3401 32.3438 36.8764 32.3448C37.4126 32.3457 37.9273 32.1336 38.3071 31.7552C38.687 31.3767 38.901 30.8628 38.9019 30.3266C38.9029 29.7903 38.6908 29.2757 38.3123 28.8958H38.3748Z" fill="#0A2647"/>
</svg>
