<svg width="50" height="50" viewBox="0 0 50 50" fill="none" xmlns="http://www.w3.org/2000/svg">
<path fill-rule="evenodd" clip-rule="evenodd" d="M3.125 14.0625C3.125 12.8193 3.61886 11.627 4.49794 10.7479C5.37701 9.86886 6.5693 9.375 7.8125 9.375H42.1875C43.4307 9.375 44.623 9.86886 45.5021 10.7479C46.3811 11.627 46.875 12.8193 46.875 14.0625V15.625H3.125V14.0625ZM3.125 18.75H46.875V35.9375C46.875 37.1807 46.3811 38.373 45.5021 39.2521C44.623 40.1311 43.4307 40.625 42.1875 40.625H7.8125C6.5693 40.625 5.37701 40.1311 4.49794 39.2521C3.61886 38.373 3.125 37.1807 3.125 35.9375V18.75ZM28.125 29.6875C27.7106 29.6875 27.3132 29.8521 27.0201 30.1451C26.7271 30.4382 26.5625 30.8356 26.5625 31.25C26.5625 31.6644 26.7271 32.0618 27.0201 32.3549C27.3132 32.6479 27.7106 32.8125 28.125 32.8125H37.5C37.9144 32.8125 38.3118 32.6479 38.6049 32.3549C38.8979 32.0618 39.0625 31.6644 39.0625 31.25C39.0625 30.8356 38.8979 30.4382 38.6049 30.1451C38.3118 29.8521 37.9144 29.6875 37.5 29.6875H28.125Z" fill="#0A2647"/>
</svg>
