<svg width="50" height="50" viewBox="0 0 50 50" fill="none" xmlns="http://www.w3.org/2000/svg">
<path d="M13.0382 33.3446C13.0261 33.3273 13.0068 33.3196 12.9943 33.3029C12.8529 33.1096 12.678 32.943 12.478 32.8111C12.449 32.7919 12.4216 32.774 12.3918 32.7563C12.2972 32.6833 12.1963 32.6191 12.0901 32.5644C11.9748 32.534 11.857 32.5142 11.7381 32.505L11.6461 32.4895C11.4161 32.4534 11.1817 32.4574 10.9532 32.5013C10.914 32.5086 10.8774 32.5182 10.8385 32.5278C10.6244 32.5817 10.4206 32.6701 10.235 32.7895C10.2037 32.8088 10.1675 32.8107 10.1369 32.832C10.1064 32.8532 10.0922 32.8867 10.0632 32.9094C9.83318 33.1001 9.64253 33.3339 9.50193 33.5976C9.46434 33.6505 9.42946 33.7053 9.39741 33.7617L6.86547 40.3464C6.66717 40.8622 6.6819 41.4357 6.90644 41.9407C7.13098 42.4456 7.54692 42.8407 8.06276 43.039C8.5786 43.2373 9.15209 43.2226 9.65707 42.9981C10.162 42.7735 10.5571 42.3576 10.7554 41.8417L12.0391 38.5035C14.6846 41.0558 18.0232 42.7726 21.6382 43.4395C25.2532 44.1065 28.9845 43.6941 32.3667 42.2539C35.7488 40.8137 38.6319 38.4094 40.6563 35.341C42.6807 32.2727 43.7567 28.6761 43.75 25.0001C43.75 24.4475 43.5305 23.9176 43.1398 23.5269C42.7491 23.1362 42.2192 22.9167 41.6667 22.9167C41.1142 22.9167 40.5843 23.1362 40.1936 23.5269C39.8029 23.9176 39.5834 24.4475 39.5834 25.0001C39.5831 28.1037 38.5928 31.1264 36.7564 33.6284C34.92 36.1304 32.3333 37.9814 29.3725 38.9122C26.4117 39.8429 23.2312 39.8048 20.2935 38.8035C17.3558 37.8022 14.8142 35.8899 13.0382 33.3446ZM41.9373 6.96114C41.4214 6.7637 40.8483 6.77885 40.3435 7.00328C39.8388 7.22771 39.4436 7.6431 39.2446 8.15841L37.961 11.4966C35.3154 8.94434 31.9769 7.2276 28.3619 6.56064C24.7469 5.89369 21.0155 6.30604 17.6334 7.74625C14.2513 9.18646 11.3681 11.5908 9.34374 14.6591C7.31936 17.7275 6.24336 21.3241 6.25003 25.0001C6.25003 25.5526 6.46952 26.0825 6.86022 26.4732C7.25093 26.8639 7.78083 27.0834 8.33336 27.0834C8.8859 27.0834 9.4158 26.8639 9.8065 26.4732C10.1972 26.0825 10.4167 25.5526 10.4167 25.0001C10.417 21.8964 11.4073 18.8738 13.2437 16.3718C15.0801 13.8697 17.6668 12.0187 20.6276 11.088C23.5884 10.1573 26.7689 10.1953 29.7066 11.1966C32.6442 12.1979 35.1859 14.1103 36.9619 16.6556C36.974 16.6727 36.9932 16.6806 37.0057 16.6972C37.1472 16.8907 37.3222 17.0574 37.5223 17.1893C37.5512 17.2085 37.5786 17.2264 37.6084 17.2441C37.7029 17.317 37.8038 17.3812 37.9099 17.4358C38.0337 17.4715 38.1606 17.4952 38.2889 17.5065L38.3213 17.5124C38.4315 17.5423 38.544 17.5632 38.6576 17.5752C39.0008 17.5719 39.3378 17.4835 39.6385 17.3178C39.9391 17.1522 40.1939 16.9145 40.3799 16.6261C40.4174 16.5709 40.4454 16.5147 40.4772 16.4567C40.5235 16.3866 40.5654 16.3137 40.6026 16.2385L43.1345 9.6538C43.3326 9.13796 43.3178 8.56456 43.0933 8.05965C42.8688 7.55474 42.453 7.15962 41.9373 6.96114Z" fill="#0A2647"/>
<path d="M26.0417 28.125H20.8333C20.2808 28.125 19.7509 28.3445 19.3602 28.7352C18.9695 29.1259 18.75 29.6558 18.75 30.2083C18.75 30.7609 18.9695 31.2908 19.3602 31.6815C19.7509 32.0722 20.2808 32.2917 20.8333 32.2917H22.9167C22.9167 32.8442 23.1362 33.3741 23.5269 33.7648C23.9176 34.1555 24.4475 34.375 25 34.375C25.5525 34.375 26.0824 34.1555 26.4731 33.7648C26.8638 33.3741 27.0833 32.8442 27.0833 32.2917V32.1969C28.205 32.0387 29.2358 31.4927 29.9969 30.6537C30.758 29.8148 31.2013 28.7359 31.25 27.6042C31.1759 26.2937 30.5869 25.0657 29.6113 24.1877C28.6357 23.3097 27.3526 22.8528 26.0417 22.9167H23.9583C23.2819 22.9167 22.9167 22.5474 22.9167 22.3958C22.9167 22.2443 23.2819 21.875 23.9583 21.875H29.1667C29.7192 21.875 30.2491 21.6555 30.6398 21.2648C31.0305 20.8741 31.25 20.3442 31.25 19.7917C31.25 19.2391 31.0305 18.7092 30.6398 18.3185C30.2491 17.9278 29.7192 17.7083 29.1667 17.7083H27.0833C27.0833 17.1558 26.8638 16.6259 26.4731 16.2352C26.0824 15.8445 25.5525 15.625 25 15.625C24.4475 15.625 23.9176 15.8445 23.5269 16.2352C23.1362 16.6259 22.9167 17.1558 22.9167 17.7083V17.8031C21.795 17.9613 20.7642 18.5073 20.0031 19.3463C19.242 20.1852 18.7987 21.2641 18.75 22.3958C18.8241 23.7063 19.4131 24.9343 20.3887 25.8123C21.3643 26.6903 22.6474 27.1472 23.9583 27.0833H26.0417C26.7181 27.0833 27.0833 27.4526 27.0833 27.6042C27.0833 27.7557 26.7181 28.125 26.0417 28.125Z" fill="#0A2647"/>
</svg>
