<svg width="50" height="50" viewBox="0 0 50 50" fill="none" xmlns="http://www.w3.org/2000/svg">
<path d="M38.3848 23C40.0605 25.4608 41.0163 28.3405 41.1448 31.315H47.0348C46.9118 27.0618 45.5475 22.9374 43.1098 19.45L38.3848 23Z" fill="#0A2647"/>
<path d="M44.275 18.5801L43.895 18.0801L43.845 18.0101C41.6763 15.0981 38.8622 12.7282 35.6237 11.0865C32.3853 9.4447 28.8104 8.57568 25.1796 8.54758C21.5489 8.51948 17.961 9.33308 14.6974 10.9245C11.4339 12.516 8.58357 14.842 6.37001 17.7201L6.15501 18.0101L6.04001 18.1701L5.72501 18.5951C2.97072 22.5222 1.49527 27.2034 1.50001 32.0001V32.7251H10.295V32.0001C10.2853 28.8412 11.3031 25.7648 13.195 23.2351C14.5637 21.394 16.3441 19.8986 18.3939 18.8684C20.4436 17.8381 22.7059 17.3015 25 17.3015C27.2941 17.3015 29.5564 17.8381 31.6062 18.8684C33.6559 19.8986 35.4363 21.394 36.805 23.2351C38.6951 25.766 39.7143 28.8413 39.71 32.0001V32.7301H48.5V32.0001C48.5085 27.1982 47.0328 22.511 44.275 18.5801ZM41.145 31.2901C41.012 28.3242 40.0563 25.4538 38.385 23.0001L43.11 19.4751C45.5431 22.9555 46.9072 27.0705 47.035 31.3151L41.145 31.2901ZM2.96501 31.2901C3.09639 27.0453 4.45826 22.9302 6.88501 19.4451L11.61 22.9451C9.93376 25.4072 8.97949 28.2891 8.85501 31.2651L2.96501 31.2901ZM12.465 21.7901L7.74501 18.2901C9.80962 15.6955 12.4329 13.6001 15.4195 12.1599C18.4062 10.7197 21.6792 9.97169 24.995 9.97169C28.3108 9.97169 31.5838 10.7197 34.5705 12.1599C37.5571 13.6001 40.1804 15.6955 42.245 18.2901L37.525 21.7901C36.0087 19.9363 34.0992 18.4427 31.9348 17.4174C29.7704 16.3921 27.4051 15.8607 25.0101 15.8617C22.6152 15.8626 20.2503 16.3959 18.0867 17.4229C15.9232 18.45 14.0149 19.9451 12.5 21.8001L12.465 21.7901Z" fill="#0A2647"/>
<path d="M37.5251 21.8001L42.2451 18.3001C40.1805 15.7055 37.5572 13.6101 34.5706 12.1699C31.5839 10.7297 28.3109 9.98169 24.9951 9.98169C21.6793 9.98169 18.4063 10.7297 15.4197 12.1699C12.433 13.6101 9.80972 15.7055 7.74512 18.3001L12.4651 21.8001C13.9806 19.9421 15.8905 18.4447 18.0565 17.4163C20.2224 16.3879 22.59 15.8544 24.9876 15.8544C27.3853 15.8544 29.7529 16.3879 31.9188 17.4163C34.0847 18.4447 35.9946 19.9421 37.5101 21.8001H37.5251Z" fill="white"/>
<path d="M11.6098 22.97L6.88484 19.47C4.46268 22.948 3.10103 27.0538 2.96484 31.29H8.85484C8.97932 28.314 9.93359 25.4321 11.6098 22.97Z" fill="#0A2647"/>
<path d="M25 24.9351C22.8783 24.9351 20.8434 25.7779 19.3431 27.2782C17.8429 28.7785 17 30.8133 17 32.9351H21.875C21.5863 32.4456 21.4328 31.8883 21.43 31.3201C21.4665 30.47 21.8037 29.6605 22.3816 29.0359C22.9594 28.4114 23.7403 28.0124 24.585 27.9101V26.5001H26.04V27.9101C26.8653 28.0307 27.6224 28.4361 28.1803 29.0561C28.7382 29.6761 29.0618 30.4717 29.095 31.3051H27.645C27.645 30.1951 26.575 29.3051 25.265 29.3051C23.955 29.3051 22.885 30.2101 22.885 31.3051C22.8957 31.634 22.9898 31.9548 23.1586 32.2374C23.3274 32.5199 23.5654 32.7548 23.85 32.9201H33C32.996 30.8009 32.1514 28.7699 30.6516 27.2729C29.1517 25.7759 27.1191 24.9351 25 24.9351Z" fill="white"/>
<path d="M26.8099 23.6601L30.8099 20.3551L29.8849 19.2351L24.7199 23.5001C22.2699 23.5754 19.9451 24.6002 18.2367 26.358C16.5283 28.1158 15.5703 30.4689 15.5649 32.9201H16.9999C17.1246 30.887 18.0202 28.9779 19.5039 27.5824C20.9877 26.1868 22.948 25.4098 24.9849 25.4098C27.0219 25.4098 28.9822 26.1868 30.4659 27.5824C31.9497 28.9779 32.8453 30.887 32.9699 32.9201H34.4249C34.4226 30.734 33.6624 28.6164 32.2739 26.9279C30.8854 25.2394 28.9544 24.0846 26.8099 23.6601Z" fill="#0A2647"/>
<path d="M22.9001 31.305C22.9001 30.195 23.9701 29.305 25.2801 29.305C26.5901 29.305 27.6601 30.21 27.6601 31.305H29.1101C29.0769 30.4716 28.7533 29.6761 28.1954 29.0561C27.6375 28.4361 26.8804 28.0307 26.0551 27.91V26.5H24.6001V27.895C23.7554 27.9973 22.9746 28.3963 22.3967 29.0209C21.8189 29.6454 21.4816 30.4549 21.4451 31.305C21.4479 31.8732 21.6015 32.4305 21.8901 32.92C22.2092 33.442 22.6474 33.8809 23.1689 34.2007C23.6904 34.5206 24.2802 34.7122 24.8901 34.76C26.2801 34.76 27.3901 35.72 27.3901 36.9C27.3901 38.08 26.2601 39.045 24.8901 39.045C23.5201 39.045 22.3651 38.085 22.3651 36.9H20.8901C20.8901 38.805 22.5351 40.365 24.6001 40.49V41.5H26.0551V40.355C26.831 40.1647 27.5234 39.7262 28.0271 39.1061C28.5307 38.486 28.818 37.7184 28.8451 36.92C28.8451 35.065 27.2801 33.53 25.2801 33.345C24.7797 33.3463 24.2891 33.2059 23.8651 32.94C23.5777 32.773 23.3379 32.5349 23.169 32.2486C23 31.9623 22.9074 31.6374 22.9001 31.305Z" fill="#0A2647"/>
</svg>
