<svg width="50" height="50" viewBox="0 0 50 50" fill="none" xmlns="http://www.w3.org/2000/svg">
<path d="M49.5312 28.75H49.2969L43.5156 15.3906C43.9844 15 44.2188 14.5312 44.2188 13.9844C44.2188 12.9688 43.3594 12.1094 42.3438 12.1094C41.9531 12.1094 41.6406 12.1875 41.25 12.4219C37.8125 10.7031 34.8438 9.84375 32.4219 9.84375C31.25 9.84375 30.2344 10.0781 29.2969 10.3906C28.75 10.625 28.2031 10.9375 27.7344 11.3281C27.2656 10.7812 26.6406 10.4688 26.0156 10.2344L25.9375 5.07813C25.9375 4.53125 25.4688 4.0625 24.9219 4.0625C24.375 4.0625 23.9062 4.53125 23.9062 5.07813L23.8281 10.2344C23.125 10.3906 22.5781 10.7812 22.1094 11.3281C21.6406 10.9375 21.1719 10.625 20.5469 10.3906C19.6094 10 18.5938 9.84375 17.4219 9.84375C15 9.84375 12.0312 10.7031 8.59375 12.4219C8.28125 12.1875 7.89063 12.1094 7.5 12.1094C6.48438 12.1094 5.625 12.9688 5.625 13.9844C5.625 14.5312 5.85938 15.0781 6.32813 15.3906L0.703125 28.75H0.46875C0.234375 28.75 0 28.9062 0 29.2188C0 33.4375 3.4375 36.875 7.65625 36.875C11.875 36.875 15.3125 33.4375 15.3125 29.2188C15.3125 28.9844 15.0781 28.75 14.8438 28.75H14.6094L8.82812 15.3906C9.14062 15.0781 9.375 14.6875 9.45312 14.2969C12.6562 12.6562 15.3906 11.7969 17.5781 11.7969C18.4375 11.7969 19.2188 11.9531 19.8438 12.1875C20.3906 12.4219 20.8594 12.7344 21.25 13.125C21.1719 13.3594 21.1719 13.6719 21.1719 13.9062C21.1719 15.5469 22.2656 17.0312 23.8281 17.5781L23.4375 39.7656C21.4844 40.3125 20 41.875 19.6875 43.6719H15.625C14.375 43.6719 13.3594 44.6875 13.3594 45.9375V46.0156H36.7188V45.9375C36.7188 44.6875 35.7031 43.6719 34.4531 43.6719H30.3906C30.0781 41.7969 28.5937 40.3125 26.6406 39.7656L26.25 17.5781C27.8125 17.0312 28.9062 15.625 28.9062 13.9062C28.9062 13.6719 28.9063 13.4375 28.8281 13.125C29.2188 12.7344 29.6875 12.3438 30.2344 12.1875C30.8594 11.9531 31.6406 11.7969 32.5 11.7969C34.6875 11.7969 37.3438 12.6563 40.5469 14.2188C40.625 14.6875 40.8594 15.0781 41.1719 15.3906L35.3906 28.75H35.1562C34.9219 28.75 34.6875 28.9844 34.6875 29.2188C34.6875 33.4375 38.125 36.875 42.3438 36.875C46.5625 36.875 50 33.4375 50 29.2188C50 28.9062 49.7656 28.75 49.5312 28.75ZM13.4375 28.75H1.875L7.5 15.7813C7.57813 15.7813 7.65625 15.7813 7.73437 15.7813C7.8125 15.7813 7.89062 15.7813 7.96875 15.7813L13.4375 28.75ZM36.5625 28.75L42.1875 15.7813C42.2656 15.7813 42.3438 15.7813 42.4219 15.7813C42.5 15.7813 42.5781 15.7813 42.6562 15.7813L48.2812 28.75H36.5625Z" fill="#0A2647"/>
</svg>
