<svg width="50" height="50" viewBox="0 0 50 50" fill="none" xmlns="http://www.w3.org/2000/svg">
<path d="M48.9584 15.625L25 3.125L1.04169 15.625L25 28.125C36.5729 22.0938 35.4167 22.7917 35.4167 22.4896L24.5 16.5417C24.2569 16.4035 24.0786 16.1745 24.0044 15.9049C23.9302 15.6353 23.9661 15.3473 24.1042 15.1042C24.2423 14.8611 24.4714 14.6828 24.741 14.6085C25.0105 14.5343 25.2986 14.5702 25.5417 14.7083L37 20.9583C38.0417 21.5625 36.4375 22.1771 39.625 20.5208L48.9584 15.625Z" fill="#0A2647"/>
<path d="M25 30.4791L10.4167 22.9167V30.2083C10.4167 35.6666 26.1459 38.6562 35.4167 34.5729V25.0521L25 30.4791ZM39.5834 30.2083V22.9167L37.5 23.9583V33.4271C38.0796 33.0966 38.5714 32.6317 38.9339 32.0716C39.2965 31.5114 39.5192 30.8724 39.5834 30.2083ZM35.4167 25.0521L37.5 23.9583V21.875C37.5 21.4896 37.6667 21.5208 35.4167 22.6979V25.0521ZM35.4167 40.9166C34.0313 41.7187 34.375 42.9062 34.375 46.875H38.5417V42.7083C38.5395 42.3447 38.4422 41.9881 38.2594 41.6738C38.0767 41.3595 37.8149 41.0984 37.5 40.9166V33.4271C36.8472 33.8802 36.149 34.2642 35.4167 34.5729V40.9166Z" fill="#0A2647"/>
</svg>
