<svg width="50" height="50" viewBox="0 0 50 50" fill="none" xmlns="http://www.w3.org/2000/svg">
<g clip-path="url(#clip0_51_462)">
<path d="M32.4267 0H17.5649V3.17734H32.4267V0Z" fill="#0A2647"/>
<path d="M34.7249 4.79053H15.2749V7.66162H34.7249V4.79053Z" fill="#0A2647"/>
<path d="M39.5726 25.9602V50H49.3226V25.9602H39.5726ZM47.4999 45.379C47.4999 45.8305 47.1366 46.1852 46.6944 46.1852H42.2101C41.7663 46.1852 41.4046 45.8305 41.4046 45.379V40.8954C41.4046 40.4516 41.7663 40.0883 42.2101 40.0883H46.6944C47.1366 40.0883 47.4999 40.4516 47.4999 40.8954V45.379ZM47.4999 35.0571C47.4999 35.5086 47.1366 35.8633 46.6944 35.8633H42.2101C41.7663 35.8633 41.4046 35.5086 41.4046 35.0571V30.5735C41.4046 30.1297 41.7663 29.7672 42.2101 29.7672H46.6944C47.1366 29.7672 47.4999 30.1297 47.4999 30.5735V35.0571ZM25.0007 35.7586C22.3397 35.7586 20.1694 37.9282 20.1694 40.5891V50H29.8218V40.5891C29.8226 37.9274 27.6616 35.7586 25.0007 35.7586ZM22.6694 43.6852C22.6694 44.129 22.3155 44.4915 21.864 44.4915C21.4202 44.4915 21.0569 44.129 21.0569 43.6852V42.0727C21.0569 41.629 21.4202 41.2665 21.864 41.2665C22.3155 41.2665 22.6694 41.629 22.6694 42.0727V43.6852Z" fill="#0A2647"/>
<path d="M12.0399 25.1375C12.0399 25.1375 12.0493 25.1453 12.0493 25.1539C12.0493 25.1624 12.0399 25.1703 12.0399 25.1703V50H18.5571V40.589C18.5571 37.0328 21.4438 34.1453 24.9915 34.1453C28.5485 34.1453 31.4353 37.032 31.4353 40.589V50H37.9603V9.27417H12.0399V25.1375ZM30.2907 11.6453C30.2907 11.2015 30.6524 10.8382 31.0962 10.8382H35.5806C36.0321 10.8382 36.386 11.2015 36.386 11.6453V16.1375C36.386 16.5812 36.0321 16.9437 35.5806 16.9437H31.0962C30.6524 16.9437 30.2907 16.5812 30.2907 16.1375V11.6453ZM30.2907 19.4679C30.2907 19.0242 30.6524 18.6617 31.0962 18.6617H35.5806C36.0321 18.6617 36.386 19.0242 36.386 19.4679V23.9515C36.386 24.4031 36.0321 24.7578 35.5806 24.7578H31.0962C30.6524 24.7578 30.2907 24.4031 30.2907 23.9515V19.4679ZM30.2907 27.2906C30.2907 26.8476 30.6524 26.4843 31.0962 26.4843H35.5806C36.0321 26.4843 36.386 26.8476 36.386 27.2906V31.775C36.386 32.2179 36.0321 32.5812 35.5806 32.5812H31.0962C30.6524 32.5812 30.2907 32.2179 30.2907 31.775V27.2906ZM21.9524 11.6453C21.9524 11.2015 22.3157 10.8382 22.7579 10.8382H27.2423C27.686 10.8382 28.0478 11.2015 28.0478 11.6453V16.1375C28.0478 16.5812 27.686 16.9437 27.2423 16.9437H22.7579C22.3157 16.9437 21.9524 16.5812 21.9524 16.1375V11.6453ZM21.9524 19.4679C21.9524 19.0242 22.3157 18.6617 22.7579 18.6617H27.2423C27.686 18.6617 28.0478 19.0242 28.0478 19.4679V23.9515C28.0478 24.4031 27.686 24.7578 27.2423 24.7578H22.7579C22.3157 24.7578 21.9524 24.4031 21.9524 23.9515V19.4679ZM21.9524 27.2906C21.9524 26.8476 22.3157 26.4843 22.7579 26.4843H27.2423C27.686 26.4843 28.0478 26.8476 28.0478 27.2906V31.775C28.0478 32.2179 27.686 32.5812 27.2423 32.5812H22.7579C22.3157 32.5812 21.9524 32.2179 21.9524 31.775V27.2906ZM13.6134 11.6453C13.6134 11.2015 13.9688 10.8382 14.4204 10.8382H18.9032C19.347 10.8382 19.7103 11.2015 19.7103 11.6453V16.1375C19.7103 16.5812 19.347 16.9437 18.9032 16.9437H14.4204C13.9688 16.9437 13.6134 16.5812 13.6134 16.1375V11.6453ZM13.6134 19.4679C13.6134 19.0242 13.9688 18.6617 14.4204 18.6617H18.9032C19.347 18.6617 19.7103 19.0242 19.7103 19.4679V23.9515C19.7103 24.4031 19.347 24.7578 18.9032 24.7578H14.4204C13.9688 24.7578 13.6134 24.4031 13.6134 23.9515V19.4679ZM13.6134 27.2906C13.6134 26.8476 13.9688 26.4843 14.4204 26.4843H18.9032C19.347 26.4843 19.7103 26.8476 19.7103 27.2906V31.775C19.7103 32.2179 19.347 32.5812 18.9032 32.5812H14.4204C13.9688 32.5812 13.6134 32.2179 13.6134 31.775V27.2906ZM0.678223 50H10.4274V25.9601H0.678223V50ZM2.50791 30.5726C2.50791 30.1289 2.86338 29.7664 3.31494 29.7664H7.79775C8.2415 29.7664 8.60478 30.1289 8.60478 30.5726V35.0562C8.60478 35.5078 8.2415 35.8624 7.79775 35.8624H3.31494C2.86338 35.8624 2.50791 35.5078 2.50791 35.0562V30.5726ZM2.50791 40.8953C2.50791 40.4515 2.86338 40.0882 3.31494 40.0882H7.79775C8.2415 40.0882 8.60478 40.4515 8.60478 40.8953V45.3789C8.60478 45.8304 8.2415 46.1851 7.79775 46.1851H3.31494C2.86338 46.1851 2.50791 45.8304 2.50791 45.3789V40.8953Z" fill="#0A2647"/>
<path d="M18.0977 12.4517H15.2258V15.3306H18.0977V12.4517Z" fill="#0A2647"/>
<path d="M26.4353 12.4517H23.5649V15.3306H26.4353V12.4517Z" fill="#0A2647"/>
<path d="M34.7741 12.4517H31.9038V15.3306H34.7741V12.4517Z" fill="#0A2647"/>
<path d="M18.0977 20.2742H15.2258V23.1453H18.0977V20.2742Z" fill="#0A2647"/>
<path d="M26.4353 20.2742H23.5649V23.1453H26.4353V20.2742Z" fill="#0A2647"/>
<path d="M34.7741 20.2742H31.9038V23.1453H34.7741V20.2742Z" fill="#0A2647"/>
<path d="M18.0977 28.0969H15.2258V30.968H18.0977V28.0969Z" fill="#0A2647"/>
<path d="M26.4353 28.0969H23.5649V30.968H26.4353V28.0969Z" fill="#0A2647"/>
<path d="M34.7741 28.0969H31.9038V30.968H34.7741V28.0969Z" fill="#0A2647"/>
<path d="M45.8874 31.3796H43.0171V34.2507H45.8874V31.3796Z" fill="#0A2647"/>
<path d="M45.8874 41.7017H43.0171V44.5728H45.8874V41.7017Z" fill="#0A2647"/>
<path d="M6.99224 31.3796H4.12036V34.2507H6.99224V31.3796Z" fill="#0A2647"/>
<path d="M6.99224 41.7017H4.12036V44.5728H6.99224V41.7017Z" fill="#0A2647"/>
</g>
<defs>
<clipPath id="clip0_51_462">
<rect width="50" height="50" fill="white"/>
</clipPath>
</defs>
</svg>
