<svg width="50" height="50" viewBox="0 0 50 50" fill="none" xmlns="http://www.w3.org/2000/svg">
<path d="M5.45956 35.1562L2.62762 41.6992H16.1424L13.3104 35.1562H5.45956Z" fill="#0A2647"/>
<path d="M28.9255 19.1406H21.0745L18.2427 25.6836H31.7573L28.9255 19.1406Z" fill="#0A2647"/>
<path d="M21.1084 27.1484H13.2575L10.4257 33.6914H23.9403L21.1084 27.1484Z" fill="#0A2647"/>
<path d="M21.0936 35.1562L18.2617 41.6992H31.7764L28.9444 35.1562H21.0936Z" fill="#0A2647"/>
<path d="M36.6895 35.1562L33.8576 41.6992H47.3724L44.5404 35.1562H36.6895Z" fill="#0A2647"/>
<path d="M26.0597 33.6914H39.5743L36.7425 27.1484H28.8916L26.0597 33.6914Z" fill="#0A2647"/>
<path d="M25 13.8672C25.1813 13.8672 25.3552 13.7952 25.4834 13.667C25.6116 13.5388 25.6836 13.3649 25.6836 13.1836V8.98438C25.6836 8.80307 25.6116 8.6292 25.4834 8.501C25.3552 8.3728 25.1813 8.30078 25 8.30078C24.8187 8.30078 24.6448 8.3728 24.5166 8.501C24.3884 8.6292 24.3164 8.80307 24.3164 8.98438V13.1836C24.3164 13.3649 24.3884 13.5388 24.5166 13.667C24.6448 13.7952 24.8187 13.8672 25 13.8672ZM40.7812 19.344C40.871 19.3442 40.9599 19.3265 41.0429 19.2921C41.1258 19.2578 41.2012 19.2073 41.2645 19.1438L44.1919 16.2164C44.3201 16.0882 44.3921 15.9143 44.3921 15.733C44.3921 15.5517 44.3201 15.3778 44.1919 15.2496C44.0637 15.1214 43.8898 15.0494 43.7085 15.0494C43.5272 15.0494 43.3533 15.1214 43.2251 15.2496L40.2977 18.177C40.2021 18.2726 40.137 18.3944 40.1106 18.527C40.0843 18.6596 40.0978 18.797 40.1495 18.922C40.2013 19.0469 40.2889 19.1536 40.4013 19.2288C40.5138 19.3039 40.6459 19.344 40.7812 19.3439L40.7812 19.344ZM8.6375 19.1438C8.7657 19.272 8.93959 19.344 9.1209 19.344C9.30221 19.344 9.47609 19.272 9.6043 19.1438C9.7325 19.0155 9.80452 18.8417 9.80452 18.6604C9.80452 18.479 9.7325 18.3052 9.6043 18.177L6.67685 15.2497C6.61337 15.1862 6.53801 15.1359 6.45507 15.1015C6.37213 15.0672 6.28323 15.0495 6.19346 15.0495C6.10368 15.0495 6.01478 15.0672 5.93184 15.1015C5.8489 15.1359 5.77354 15.1862 5.71006 15.2497C5.64658 15.3132 5.59622 15.3886 5.56186 15.4715C5.52751 15.5544 5.50983 15.6433 5.50983 15.7331C5.50983 15.8229 5.52751 15.9118 5.56186 15.9947C5.59622 16.0777 5.64658 16.153 5.71006 16.2165L8.6375 19.1438ZM15.241 15.0811C15.3147 15.2467 15.4512 15.3762 15.6204 15.4412C15.7896 15.5062 15.9777 15.5014 16.1433 15.4277C16.309 15.354 16.4385 15.2176 16.5036 15.0484C16.5687 14.8792 16.5638 14.6911 16.4902 14.5255L14.8083 10.7428C14.7723 10.6601 14.7202 10.5853 14.6552 10.5228C14.5901 10.4603 14.5134 10.4113 14.4293 10.3786C14.3452 10.3459 14.2555 10.3302 14.1653 10.3323C14.0751 10.3345 13.9863 10.3545 13.9038 10.3911C13.8214 10.4278 13.747 10.4804 13.685 10.5459C13.623 10.6114 13.5746 10.6886 13.5426 10.7729C13.5105 10.8572 13.4955 10.9471 13.4983 11.0372C13.5012 11.1274 13.5218 11.2161 13.5591 11.2982L15.241 15.0811ZM33.1503 15.1196C33.2336 15.153 33.3228 15.1696 33.4125 15.1685C33.5023 15.1674 33.591 15.1486 33.6735 15.1133C33.756 15.0779 33.8308 15.0266 33.8935 14.9624C33.9562 14.8981 34.0056 14.8221 34.039 14.7388L35.5762 10.8949C35.6435 10.7266 35.6412 10.5384 35.5698 10.3717C35.4984 10.205 35.3637 10.0736 35.1953 10.0062C35.027 9.93891 34.8388 9.9412 34.6721 10.0126C34.5054 10.0841 34.374 10.2188 34.3066 10.3871L32.769 14.231C32.7357 14.3143 32.7191 14.4035 32.7202 14.4933C32.7213 14.5831 32.7401 14.6718 32.7755 14.7543C32.811 14.8368 32.8623 14.9116 32.9266 14.9742C32.9909 15.0369 33.0669 15.0863 33.1503 15.1196Z" fill="#0A2647"/>
</svg>
