<svg width="50" height="50" viewBox="0 0 50 50" fill="none" xmlns="http://www.w3.org/2000/svg">
<path d="M25 6.25C25 6.25 12.1125 17.375 4.91044 23.4C4.68126 23.5997 4.49662 23.8453 4.3685 24.1209C4.24037 24.3966 4.17161 24.6961 4.16669 25C4.16669 25.5525 4.38618 26.0824 4.77688 26.4731C5.16758 26.8638 5.69749 27.0833 6.25002 27.0833H10.4167V41.6667C10.4167 42.2192 10.6362 42.7491 11.0269 43.1398C11.4176 43.5305 11.9475 43.75 12.5 43.75H18.75C19.3026 43.75 19.8325 43.5305 20.2232 43.1398C20.6139 42.7491 20.8334 42.2192 20.8334 41.6667V33.3333H29.1667V41.6667C29.1667 42.2192 29.3862 42.7491 29.7769 43.1398C30.1676 43.5305 30.6975 43.75 31.25 43.75H37.5C38.0526 43.75 38.5825 43.5305 38.9732 43.1398C39.3639 42.7491 39.5834 42.2192 39.5834 41.6667V27.0833H43.75C44.3026 27.0833 44.8325 26.8638 45.2232 26.4731C45.6139 26.0824 45.8334 25.5525 45.8334 25C45.8304 24.6902 45.7571 24.3852 45.6189 24.108C45.4806 23.8308 45.2811 23.5887 45.0354 23.4C37.8834 17.375 25 6.25 25 6.25Z" fill="#0A2647"/>
</svg>
