<svg width="50" height="50" viewBox="0 0 50 50" fill="none" xmlns="http://www.w3.org/2000/svg">
<path d="M45.8335 39.5835C45.8335 40.735 44.9015 41.667 43.75 41.667H10.4165C6.97 41.667 4.1665 38.8635 4.1665 35.417V10.417C4.1665 9.2665 5.0995 8.3335 6.25 8.3335C7.4005 8.3335 8.3335 9.2665 8.3335 10.417V35.417C8.3335 36.5665 9.2685 37.5005 10.417 37.5005H43.75C44.9015 37.5 45.8335 38.432 45.8335 39.5835ZM43.75 12.5H35.4165C34.265 12.5 33.333 13.433 33.333 14.5835C33.333 15.734 34.265 16.667 35.4165 16.667H38.7205L31.25 24.1375L26.473 19.3605C25.659 18.5465 24.341 18.5465 23.527 19.3605L13.1105 29.777C12.2965 30.591 12.2965 31.909 13.1105 32.723C13.5175 33.13 14.0505 33.3335 14.5835 33.3335C15.1165 33.3335 15.6495 33.13 16.0565 32.723L25 23.7795L29.777 28.5565C30.184 28.9635 30.717 29.167 31.25 29.167C31.783 29.167 32.316 28.9635 32.723 28.5565L41.6665 19.613V22.917C41.6665 24.0675 42.5985 25.0005 43.75 25.0005C44.9015 25.0005 45.8335 24.0675 45.8335 22.917V14.5835C45.8335 13.433 44.9015 12.5 43.75 12.5Z" fill="#0A2647"/>
</svg>
