<svg width="50" height="50" viewBox="0 0 50 50" fill="none" xmlns="http://www.w3.org/2000/svg">
<path d="M25.2728 45.6582C24.1267 45.7716 18.1707 41.0106 16.7749 39.6494C12.1403 35.1298 9.89267 29.615 9.25447 23.3018C9.02412 21.0229 9.12474 18.7191 9.12341 16.4329L9.12161 14.4722C9.11988 12.7346 9.10114 13.0001 10.5572 12.3888L23.3702 6.97398C23.9217 6.74258 24.4964 6.42119 25.076 6.27953C25.6231 6.24462 28.1884 7.49382 28.831 7.76525L39.2933 12.1631C41.3446 13.0311 41.2088 12.5483 41.2071 14.7061L41.2062 16.5777C41.2062 18.3707 41.2495 20.1736 41.1652 21.9644C40.7 31.8394 36.2477 38.5201 28.0807 43.9828C27.3811 44.4507 26.0594 45.3876 25.2728 45.6582ZM23.6622 17.2421C22.4258 17.3198 22.6404 18.4679 22.641 19.3541C22.6416 20.3041 22.6593 21.2574 22.6325 22.2069C21.7762 22.1829 20.9174 22.1951 20.0607 22.1953C18.9968 22.1955 17.6611 21.8974 17.639 23.4084C17.6303 24.0063 17.5654 26.1211 17.6794 26.5774C17.921 27.5435 19.0632 27.3549 19.8035 27.3546C20.7499 27.3544 21.7004 27.3353 22.6462 27.3621L22.6433 30.1433C22.6454 32.2807 22.6473 32.3429 24.6491 32.3446L26.728 32.347C27.9928 32.2143 27.727 30.8591 27.7267 29.9473C27.7264 29.0846 27.7352 28.2207 27.7207 27.3581L30.382 27.3542C31.1727 27.3542 32.4344 27.587 32.6764 26.5445C32.7895 26.0569 32.7257 24.3797 32.7149 23.755C32.684 21.9669 31.9118 22.1953 30.5026 22.1956C29.5847 22.196 28.6607 22.2203 27.744 22.1751C27.6902 21.2288 27.7266 20.2673 27.7265 19.3189C27.7263 17.3987 27.8407 17.2291 25.7098 17.2302C25.0276 17.2306 24.3442 17.2236 23.6622 17.2421Z" fill="#0A2647"/>
</svg>
