<svg width="50" height="50" viewBox="0 0 50 50" fill="none" xmlns="http://www.w3.org/2000/svg">
<path fill-rule="evenodd" clip-rule="evenodd" d="M43.8171 13.2812H46.9421C47.3734 13.2812 47.7234 12.9312 47.7234 12.5C47.7234 12.0688 47.3734 11.7188 46.9421 11.7188H43.8171C43.3859 11.7188 43.0359 12.0688 43.0359 12.5C43.0359 12.9312 43.3859 13.2812 43.8171 13.2812Z" fill="#0A2647"/>
<path fill-rule="evenodd" clip-rule="evenodd" d="M43.1891 16.4895L46.2076 17.2983C46.6242 17.41 47.0528 17.1625 47.1644 16.7459C47.2761 16.3294 47.0286 15.9007 46.612 15.7891L43.5935 14.9803C43.1769 14.8687 42.7483 15.1162 42.6367 15.5327C42.525 15.9493 42.7725 16.3779 43.1891 16.4895Z" fill="#0A2647"/>
<path fill-rule="evenodd" clip-rule="evenodd" d="M41.7515 19.4264L44.4579 20.9889C44.8313 21.2045 45.3094 21.0764 45.5251 20.7029C45.7407 20.3295 45.6126 19.8514 45.2391 19.6357L42.5328 18.0732C42.1593 17.8576 41.6812 17.9857 41.4656 18.3592C41.25 18.7327 41.3781 19.2108 41.7515 19.4264Z" fill="#0A2647"/>
<path fill-rule="evenodd" clip-rule="evenodd" d="M43.5931 10.0195L46.6116 9.21065C47.0282 9.09903 47.2757 8.67037 47.1641 8.25382C47.0524 7.83726 46.6238 7.58977 46.2072 7.70139L43.1887 8.5102C42.7722 8.62182 42.5247 9.05048 42.6363 9.46703C42.7479 9.88359 43.1766 10.1311 43.5931 10.0195Z" fill="#0A2647"/>
<path fill-rule="evenodd" clip-rule="evenodd" d="M42.5325 6.92567L45.2389 5.36317C45.6123 5.14755 45.7405 4.66944 45.5248 4.29597C45.3092 3.92249 44.8311 3.79438 44.4576 4.01001L41.7513 5.57251C41.3778 5.78813 41.2497 6.26624 41.4653 6.63972C41.681 7.01319 42.1591 7.1413 42.5325 6.92567Z" fill="#0A2647"/>
<path fill-rule="evenodd" clip-rule="evenodd" d="M15.6921 13.2812H18.8171C19.2484 13.2812 19.5984 12.9312 19.5984 12.5C19.5984 12.0688 19.2484 11.7188 18.8171 11.7188H15.6921C15.2609 11.7188 14.9109 12.0688 14.9109 12.5C14.9109 12.9312 15.2609 13.2812 15.6921 13.2812Z" fill="#0A2647"/>
<path fill-rule="evenodd" clip-rule="evenodd" d="M16.0216 9.21024L19.0401 10.0191C19.4567 10.1307 19.8853 9.88318 19.997 9.46662C20.1086 9.05007 19.8611 8.62141 19.4445 8.50979L16.426 7.70098C16.0095 7.58937 15.5808 7.83685 15.4692 8.25341C15.3576 8.66996 15.6051 9.09863 16.0216 9.21024Z" fill="#0A2647"/>
<path fill-rule="evenodd" clip-rule="evenodd" d="M17.3946 5.36391L20.1009 6.92641C20.4744 7.14203 20.9525 7.01392 21.1681 6.64045C21.3838 6.26698 21.2557 5.78887 20.8822 5.57324L18.1758 4.01074C17.8024 3.79512 17.3243 3.92323 17.1086 4.2967C16.893 4.67017 17.0211 5.14828 17.3946 5.36391Z" fill="#0A2647"/>
<path fill-rule="evenodd" clip-rule="evenodd" d="M16.4269 17.299L19.4454 16.4902C19.8619 16.3786 20.1094 15.9499 19.9978 15.5334C19.8862 15.1168 19.4575 14.8693 19.041 14.9809L16.0225 15.7897C15.6059 15.9014 15.3584 16.33 15.47 16.7466C15.5816 17.1631 16.0103 17.4106 16.4269 17.299Z" fill="#0A2647"/>
<path fill-rule="evenodd" clip-rule="evenodd" d="M18.1756 20.9882L20.8819 19.4257C21.2554 19.21 21.3835 18.7319 21.1679 18.3585C20.9523 17.985 20.4742 17.8569 20.1007 18.0725L17.3944 19.635C17.0209 19.8506 16.8928 20.3287 17.1084 20.7022C17.324 21.0757 17.8021 21.2038 18.1756 20.9882Z" fill="#0A2647"/>
<path fill-rule="evenodd" clip-rule="evenodd" d="M16.0835 45.3117L4.68818 33.9164L2.43896 36.1656C2.13428 36.4711 2.13428 36.9656 2.43896 37.2703L12.7296 47.5609C13.0343 47.8656 13.5288 47.8656 13.8343 47.5609L16.0835 45.3117ZM5.79287 32.8117L17.1882 44.207L20.4077 40.9875C21.1405 40.2547 22.1343 39.843 23.1702 39.843C26.0655 39.843 34.3757 39.843 34.3757 39.843C34.9968 39.843 35.5929 39.5961 36.0327 39.157L46.9702 28.2195C47.8851 27.3047 47.8851 25.8195 46.9702 24.9047C46.0554 23.9898 44.5702 23.9898 43.6554 24.9047C43.6554 24.9047 39.5499 29.0109 37.6741 30.8867C36.9413 31.6188 35.9476 32.0305 34.9116 32.0305L23.5046 32.0312C23.0733 32.0312 22.7233 31.6812 22.7233 31.25C22.7233 30.8188 23.0733 30.4688 23.5046 30.4688C23.5046 30.4688 29.4718 30.468 29.6882 30.468C30.3093 30.468 30.9054 30.2211 31.3452 29.782C31.7851 29.3422 32.0319 28.7461 32.0319 28.1242C32.0319 27.5031 31.7851 26.907 31.3452 26.4672C30.9054 26.0273 30.3093 25.7805 29.6882 25.7805C26.0827 25.7805 16.8499 25.7805 13.7952 25.7805C13.1733 25.7805 12.5772 26.0273 12.1374 26.4672L5.79287 32.8117ZM31.2499 2.34375C25.6444 2.34375 21.0937 6.89453 21.0937 12.5C21.0937 18.1055 25.6444 22.6562 31.2499 22.6562C36.8554 22.6562 41.4062 18.1055 41.4062 12.5C41.4062 6.89453 36.8554 2.34375 31.2499 2.34375ZM30.5358 7.03125C28.8101 7.03125 27.4108 8.43047 27.4108 10.1562C27.4108 11.882 28.8101 13.2812 30.5358 13.2812V16.4062C29.6726 16.4062 28.9733 15.707 28.9733 14.8438C28.9733 14.4125 28.6233 14.0625 28.1921 14.0625C27.7608 14.0625 27.4108 14.4125 27.4108 14.8438C27.4108 16.5695 28.8101 17.9688 30.5358 17.9688V18.75C30.5358 19.1812 30.8858 19.5312 31.3171 19.5312C31.7483 19.5312 32.0983 19.1812 32.0983 18.75V17.9688C33.8241 17.9688 35.2233 16.5695 35.2233 14.8438C35.2233 13.118 33.8241 11.7188 32.0983 11.7188V8.59375C32.9608 8.59375 33.6608 9.29297 33.6608 10.1562C33.6608 10.5875 34.0108 10.9375 34.4421 10.9375C34.8733 10.9375 35.2233 10.5875 35.2233 10.1562C35.2233 8.43047 33.8241 7.03125 32.0983 7.03125V6.25C32.0983 5.81875 31.7483 5.46875 31.3171 5.46875C30.8858 5.46875 30.5358 5.81875 30.5358 6.25V7.03125ZM32.0983 13.2812V16.4062C32.9608 16.4062 33.6608 15.707 33.6608 14.8438C33.6608 13.9805 32.9608 13.2812 32.0983 13.2812ZM30.5358 8.59375C29.6726 8.59375 28.9733 9.29297 28.9733 10.1562C28.9733 11.0195 29.6726 11.7188 30.5358 11.7188V8.59375Z" fill="#0A2647"/>
</svg>
