<svg width="67" height="67" viewBox="0 0 67 67" fill="none" xmlns="http://www.w3.org/2000/svg">
<g filter="url(#filter0_d_47_41)">
<rect x="4" y="4" width="59" height="59" rx="15" fill="#F4C542" shape-rendering="crispEdges"/>
<path d="M33.5 18.9166C25.4792 18.9166 18.9167 25.4791 18.9167 33.5C18.9167 41.5208 25.4792 48.0833 33.5 48.0833C41.5209 48.0833 48.0834 41.5208 48.0834 33.5C48.0834 25.4791 41.5209 18.9166 33.5 18.9166ZM34.9584 33.5C34.9584 34.0833 34.6667 34.5208 34.2292 34.8125L30.4375 37C29.7084 37.4375 28.8334 37.1458 28.3959 36.4166C27.9584 35.6875 28.25 34.8125 28.9792 34.375L32.0417 32.625V26.2083C32.0417 25.3333 32.625 24.75 33.5 24.75C34.375 24.75 34.9584 25.3333 34.9584 26.2083V33.5Z" fill="#0A2647"/>
</g>
<defs>
<filter id="filter0_d_47_41" x="0" y="0" width="67" height="67" filterUnits="userSpaceOnUse" color-interpolation-filters="sRGB">
<feFlood flood-opacity="0" result="BackgroundImageFix"/>
<feColorMatrix in="SourceAlpha" type="matrix" values="0 0 0 0 0 0 0 0 0 0 0 0 0 0 0 0 0 0 127 0" result="hardAlpha"/>
<feOffset/>
<feGaussianBlur stdDeviation="2"/>
<feComposite in2="hardAlpha" operator="out"/>
<feColorMatrix type="matrix" values="0 0 0 0 0 0 0 0 0 0 0 0 0 0 0 0 0 0 0.15 0"/>
<feBlend mode="normal" in2="BackgroundImageFix" result="effect1_dropShadow_47_41"/>
<feBlend mode="normal" in="SourceGraphic" in2="effect1_dropShadow_47_41" result="shape"/>
</filter>
</defs>
</svg>
