<svg width="50" height="50" viewBox="0 0 50 50" fill="none" xmlns="http://www.w3.org/2000/svg">
<path d="M39.2217 22.881C39.7275 22.881 40.1375 22.4709 40.1375 21.9651C40.1375 21.4593 39.7275 21.0493 39.2217 21.0493C38.7159 21.0493 38.3059 21.4593 38.3059 21.9651C38.3059 22.4709 38.7159 22.881 39.2217 22.881Z" fill="#0A2647"/>
<path d="M48.5207 23.9961H45.1234C43.8912 20.3508 41.1237 17.4101 37.6122 15.863L37.6003 15.8591C37.5532 13.9458 38.0924 11.8988 38.7458 9.60376C35.9744 10.5052 34.0258 12.4381 32.7307 14.6584H31.4629C31.1402 15.8434 30.5576 16.9536 29.7505 17.9022L29.5183 18.1778C29.5499 18.1778 29.5696 18.1778 29.5696 18.1778C29.7861 18.1778 29.9632 18.355 29.9632 18.5714C29.9632 18.7918 29.7861 18.9651 29.5696 18.9651H17.0667C16.8463 18.9651 16.6731 18.7918 16.6731 18.5714C16.6731 18.355 16.8463 18.1778 17.0667 18.1778C17.0667 18.1778 17.0864 18.1778 17.1218 18.1778L16.8857 17.8983C16.2794 17.1818 15.7953 16.3748 15.4606 15.5087C13.6064 16.1977 11.9413 17.2802 10.5673 18.6541C8.10298 21.1224 6.57153 24.5354 6.57153 28.3067C6.57153 34.1409 10.2327 39.1208 15.3858 41.0693V44.2462C15.3858 44.7856 15.8227 45.2226 16.3621 45.2226H21.3695C21.9087 45.2226 22.3458 44.7856 22.3458 44.2462V41.9512H29.731V44.2462C29.731 44.7856 30.1679 45.2226 30.7073 45.2226H35.5218C36.0612 45.2226 36.4981 44.7856 36.4981 44.2462V41.2544C38.5374 40.5851 40.36 39.4396 41.8441 37.9554C43.3006 36.4989 44.4305 34.7156 45.1116 32.7197H46.757C47.3986 32.7197 47.9695 32.2946 48.1703 31.6805L49.9339 25.8976C50.2252 24.9528 49.5166 23.9961 48.5207 23.9961ZM39.2218 23.6683C38.2827 23.6683 37.5188 22.9043 37.5188 21.9653C37.5188 21.0261 38.2828 20.2623 39.2218 20.2623C40.161 20.2623 40.9249 21.0262 40.9249 21.9653C40.9249 22.9043 40.161 23.6683 39.2218 23.6683Z" fill="#0A2647"/>
<path d="M29.1483 18.1778L29.5144 18.1817L29.5183 18.1778C29.4514 18.1778 29.3255 18.1739 29.1483 18.1778ZM21.8481 11.1355C22.0696 11.5712 22.4644 11.8761 22.9241 11.9899V8.80151C21.88 9.05532 21.3836 10.2091 21.8481 11.1355Z" fill="#0A2647"/>
<path d="M22.9397 17.3879C22.9346 17.3622 22.9243 17.3384 22.9243 17.3112V16.868C22.184 16.7451 21.5087 16.2866 21.1452 15.5663C21.0472 15.3723 21.1252 15.1358 21.3194 15.0378C21.5132 14.939 21.7499 15.0178 21.8479 15.212C22.0727 15.657 22.4747 15.9496 22.9243 16.0615V12.7928C22.1626 12.6673 21.5027 12.1932 21.1456 11.4903C20.4114 10.0285 21.3038 8.25869 22.9243 7.9957V7.55684C22.9243 7.33926 23.1004 7.16318 23.318 7.16318C23.5355 7.16318 23.7116 7.33926 23.7116 7.55684V7.99961C24.4526 8.12256 25.1276 8.58184 25.49 9.30088C25.588 9.49502 25.5101 9.73184 25.3158 9.82949C25.1213 9.92754 24.8849 9.84912 24.7872 9.65527C24.5632 9.21104 24.1611 8.91934 23.7116 8.80742V12.0767C24.4737 12.2017 25.1335 12.6748 25.4896 13.3774C26.2163 14.8193 25.3573 16.6003 23.7116 16.869V17.3113C23.7116 17.3383 23.7014 17.3621 23.6963 17.3875C24.7676 17.3869 25.5416 17.3864 25.5661 17.3864C27.625 17.3864 28.6407 17.3864 29.1524 17.3903C30.29 16.0559 30.9751 14.3236 30.9751 12.4302C30.9751 8.20615 27.5463 4.77734 23.3223 4.77734C19.0864 4.77734 15.6655 8.20615 15.6655 12.4302C15.6655 14.3237 16.3505 16.0559 17.4843 17.3903C18.4642 17.3903 20.9741 17.389 22.9397 17.3879Z" fill="#0A2647"/>
<path d="M24.8797 14.9877C25.0173 14.5707 24.9846 14.1248 24.7871 13.7325C24.566 13.2966 24.1714 12.9924 23.7115 12.8792V16.0664C24.2871 15.9245 24.7073 15.5095 24.8797 14.9877ZM8.20516 21.0239C7.92958 21.2365 7.63817 21.4293 7.33505 21.587C6.65399 21.9333 5.96122 22.0436 5.3746 21.898C6.28153 21.2025 6.95038 20.0241 6.33134 19.1304C5.85106 18.4376 4.84325 18.4219 4.20946 18.843C3.24452 19.491 3.01112 20.8175 3.83544 21.8192C3.59931 21.8902 3.35516 21.9334 3.10722 21.9491C2.22147 22.0042 1.3121 21.6735 0.662489 21.0633C0.505067 20.9137 0.25702 20.9216 0.107411 21.0791C-0.0421987 21.2405 -0.0341908 21.4884 0.123133 21.638C0.926258 22.3939 2.06776 22.8073 3.15429 22.7364C3.62665 22.7048 4.0912 22.5907 4.52821 22.3978C5.42274 22.909 6.49804 22.8176 7.43749 22.4017C7.66591 21.9253 7.92186 21.4649 8.20516 21.0239ZM4.5952 21.4767C3.9037 20.8327 4.00546 19.9252 4.64647 19.5004C4.94706 19.2973 5.48007 19.2802 5.68173 19.5792C6.07645 20.1399 5.30214 21.0561 4.5952 21.4767Z" fill="#0A2647"/>
</svg>
