<svg width="67" height="67" viewBox="0 0 67 67" fill="none" xmlns="http://www.w3.org/2000/svg">
<g filter="url(#filter0_d_47_36)">
<rect x="4" y="4" width="59" height="59" rx="15" fill="#F4C542" shape-rendering="crispEdges"/>
<path d="M35.6875 28.0312C35.6875 26.8281 34.7031 25.8438 33.5 25.8438C32.2969 25.8438 31.3125 26.8281 31.3125 28.0312V30.2188H35.6875V28.0312Z" fill="#0A2647"/>
<path d="M20.375 23.6562V32.4062C20.375 41.4844 25.1875 44.2188 31.75 47.9375L32.9531 48.5938C33.1719 48.8125 33.2812 48.8125 33.5 48.8125C33.7188 48.8125 33.8281 48.8125 34.0469 48.7031L35.25 48.0469C41.8125 44.2188 46.625 41.4844 46.625 32.4062V23.6562C46.625 23.2188 46.2969 22.7812 45.8594 22.6719L33.8281 18.2969C33.6094 18.1875 33.2812 18.1875 33.0625 18.2969L21.0312 22.6719C20.7031 22.7812 20.375 23.2188 20.375 23.6562ZM26.9375 33.5C26.9375 32.0781 27.8125 30.875 29.125 30.4375V28.0312C29.125 25.625 31.0938 23.6562 33.5 23.6562C35.9062 23.6562 37.875 25.625 37.875 28.0312V30.4375C39.1875 30.875 40.0625 32.0781 40.0625 33.5V36.7812C40.0625 40.3906 37.1094 43.3438 33.5 43.3438C29.8906 43.3438 26.9375 40.3906 26.9375 36.7812V33.5Z" fill="#0A2647"/>
<path d="M33.5 33.5C32.8437 33.5 32.4062 33.9375 32.4062 34.5938V36.7812C32.4062 37.4375 32.8437 37.875 33.5 37.875C34.1562 37.875 34.5938 37.4375 34.5938 36.7812V34.5938C34.5938 33.9375 34.1562 33.5 33.5 33.5Z" fill="#0A2647"/>
</g>
<defs>
<filter id="filter0_d_47_36" x="0" y="0" width="67" height="67" filterUnits="userSpaceOnUse" color-interpolation-filters="sRGB">
<feFlood flood-opacity="0" result="BackgroundImageFix"/>
<feColorMatrix in="SourceAlpha" type="matrix" values="0 0 0 0 0 0 0 0 0 0 0 0 0 0 0 0 0 0 127 0" result="hardAlpha"/>
<feOffset/>
<feGaussianBlur stdDeviation="2"/>
<feComposite in2="hardAlpha" operator="out"/>
<feColorMatrix type="matrix" values="0 0 0 0 0 0 0 0 0 0 0 0 0 0 0 0 0 0 0.15 0"/>
<feBlend mode="normal" in2="BackgroundImageFix" result="effect1_dropShadow_47_36"/>
<feBlend mode="normal" in="SourceGraphic" in2="effect1_dropShadow_47_36" result="shape"/>
</filter>
</defs>
</svg>
