<svg width="67" height="67" viewBox="0 0 67 67" fill="none" xmlns="http://www.w3.org/2000/svg">
<g filter="url(#filter0_d_47_47)">
<rect x="4" y="4" width="59" height="59" rx="15" fill="#F4C542" shape-rendering="crispEdges"/>
<g clip-path="url(#clip0_47_47)">
<path fill-rule="evenodd" clip-rule="evenodd" d="M51 33.5C51 43.1979 43.125 51 33.5 51C23.8021 51 16 43.125 16 33.5C16 23.875 23.8021 16 33.5 16C43.125 16 51 23.875 51 33.5Z" fill="#0A2647"/>
<path d="M35.0312 37.875H31.2396C31.0208 37.875 30.875 37.7292 30.875 37.5105C30.875 37.2917 31.0208 37.1459 31.2396 37.1459H35.0312C35.25 37.1459 35.3958 37.2917 35.3958 37.5105C35.3958 37.7292 35.25 37.875 35.0312 37.875ZM33.5729 39.3334H31.2396C31.0208 39.3334 30.875 39.1875 30.875 38.9688C30.875 38.75 31.0208 38.6042 31.2396 38.6042H33.5729C33.7917 38.6042 33.9375 38.75 33.9375 38.9688C33.9375 39.1875 33.7917 39.3334 33.5729 39.3334ZM26.9375 39.3334C26.3542 39.3334 25.8438 38.823 25.8438 38.2396V33.8646C25.8438 33.2813 26.3542 32.7709 26.9375 32.7709C27.5208 32.7709 28.0312 33.2813 28.0312 33.8646V38.2396C28.0312 38.823 27.5208 39.3334 26.9375 39.3334ZM26.9375 33.5C26.7188 33.5 26.5729 33.6459 26.5729 33.8646V38.2396C26.5729 38.4584 26.7188 38.6042 26.9375 38.6042C27.1562 38.6042 27.3021 38.4584 27.3021 38.2396V33.8646C27.3021 33.6459 27.1562 33.5 26.9375 33.5Z" fill="#F4C542"/>
<path d="M26.2083 38.6042H24.75C24.1667 38.6042 23.6562 38.0938 23.6562 37.5105V34.5938C23.6562 34.0105 24.1667 33.5 24.75 33.5H26.2083C26.4271 33.5 26.5729 33.6459 26.5729 33.8646V38.2396C26.5729 38.4584 26.4271 38.6042 26.2083 38.6042ZM24.75 34.2292C24.5313 34.2292 24.3854 34.375 24.3854 34.5938V37.5105C24.3854 37.7292 24.5313 37.875 24.75 37.875H25.8438V34.2292H24.75ZM39.3333 39.3334C38.75 39.3334 38.2396 38.823 38.2396 38.2396V33.8646C38.2396 33.2813 38.75 32.7709 39.3333 32.7709C39.9167 32.7709 40.4271 33.2813 40.4271 33.8646V38.2396C40.4271 38.823 39.9167 39.3334 39.3333 39.3334ZM39.3333 33.5C39.1146 33.5 38.9688 33.6459 38.9688 33.8646V38.2396C38.9688 38.4584 39.1146 38.6042 39.3333 38.6042C39.5521 38.6042 39.6979 38.4584 39.6979 38.2396V33.8646C39.6979 33.6459 39.5521 33.5 39.3333 33.5Z" fill="#F4C542"/>
<path d="M24.75 34.2292C24.5313 34.2292 24.3854 34.375 24.3854 34.5938V37.5105C24.3854 37.7292 24.5313 37.875 24.75 37.875H25.8438V34.2292H24.75Z" fill="#F4C542"/>
<path d="M41.5209 38.6042H40.0625C39.8438 38.6042 39.6979 38.4583 39.6979 38.2396V33.8646C39.6979 33.6458 39.8438 33.5 40.0625 33.5H41.5209C42.1042 33.5 42.6146 34.0104 42.6146 34.5938V37.5104C42.6146 38.0938 42.1042 38.6042 41.5209 38.6042ZM40.4271 37.875H41.5209C41.7396 37.875 41.8854 37.7292 41.8854 37.5104V34.5938C41.8854 34.375 41.7396 34.2292 41.5209 34.2292H40.4271V37.875ZM34.9584 44.4375H34.2292C33.6459 44.4375 33.1354 43.9271 33.1354 43.3438C33.1354 42.7604 33.6459 42.25 34.2292 42.25H34.9584C35.5417 42.25 36.0521 42.7604 36.0521 43.3438C36.0521 43.9271 35.5417 44.4375 34.9584 44.4375ZM34.2292 42.9792C34.0104 42.9792 33.8646 43.125 33.8646 43.3438C33.8646 43.5625 34.0104 43.7083 34.2292 43.7083H34.9584C35.1771 43.7083 35.3229 43.5625 35.3229 43.3438C35.3229 43.125 35.1771 42.9792 34.9584 42.9792H34.2292Z" fill="#F4C542"/>
<path d="M40.4271 37.875H41.5209C41.7396 37.875 41.8854 37.7292 41.8854 37.5104V34.5938C41.8854 34.375 41.7396 34.2292 41.5209 34.2292H40.4271V37.875Z" fill="#F4C542"/>
<path d="M37.1458 43.7083H35.6875C35.4688 43.7083 35.3229 43.5625 35.3229 43.3438C35.3229 43.125 35.4688 42.9792 35.6875 42.9792H37.1458C39.3333 42.9792 41.1562 41.1563 41.1562 38.9688V38.2396C41.1562 38.0208 41.3021 37.875 41.5208 37.875C41.7396 37.875 41.8854 38.0208 41.8854 38.2396V38.9688C41.8854 41.5938 39.7708 43.7083 37.1458 43.7083ZM40.7188 31.6771C40.1354 31.6771 39.6979 31.2396 39.625 30.7292C39.3333 27.3021 36.4896 24.75 33.0625 24.75C29.6354 24.75 26.8646 27.3021 26.5 30.7292C26.4271 31.2396 25.9896 31.6771 25.4062 31.6771C25.1146 31.6771 24.8229 31.5313 24.6042 31.3125C24.3854 31.0938 24.3125 30.8021 24.3125 30.4375C24.8229 25.9896 28.6146 22.5625 33.1354 22.5625C37.6562 22.5625 41.4479 25.9896 41.8125 30.5104C41.8125 30.8021 41.7396 31.0938 41.5208 31.3854C41.375 31.5313 41.0833 31.6771 40.7188 31.6771ZM33.1354 24.0208C36.9271 24.0208 40.0625 26.8646 40.4271 30.6563C40.4271 30.8021 40.5729 30.9479 40.7917 30.9479C40.8646 30.9479 41.0104 30.875 41.0833 30.8021C41.1562 30.7292 41.1562 30.6563 41.1562 30.5104C40.7917 26.3542 37.3646 23.2917 33.1354 23.2917C28.9062 23.2917 25.5521 26.4271 25.1146 30.5104C25.1146 30.5833 25.1146 30.7292 25.1875 30.8021C25.4063 31.0208 25.7708 30.875 25.8438 30.5833C26.2083 26.8646 29.3438 24.0208 33.1354 24.0208Z" fill="#F4C542"/>
<path d="M33.1354 24.0208C36.9271 24.0208 40.0625 26.8646 40.4271 30.6563C40.4271 30.8021 40.5729 30.9479 40.7917 30.9479C40.8646 30.9479 41.0104 30.875 41.0833 30.8021C41.1562 30.7292 41.1562 30.6563 41.1562 30.5104C40.7917 26.3542 37.3646 23.2917 33.1354 23.2917C28.9062 23.2917 25.5521 26.4271 25.1146 30.5104C25.1146 30.5833 25.1146 30.7292 25.1875 30.8021C25.4063 31.0208 25.7708 30.875 25.8438 30.5833C26.2083 26.8646 29.3438 24.0208 33.1354 24.0208Z" fill="#F4C542"/>
<path d="M25.4791 34.2292C25.2604 34.2292 25.1146 34.0833 25.1146 33.8646V31.6771C25.1146 31.4583 25.2604 31.3125 25.4791 31.3125C25.6979 31.3125 25.8437 31.4583 25.8437 31.6771V33.8646C25.8437 34.0833 25.6979 34.2292 25.4791 34.2292ZM40.7916 34.2292C40.5729 34.2292 40.4271 34.0833 40.4271 33.8646V31.6771C40.4271 31.4583 40.5729 31.3125 40.7916 31.3125C41.0104 31.3125 41.1562 31.4583 41.1562 31.6771V33.8646C41.1562 34.0833 41.0104 34.2292 40.7916 34.2292ZM31.3125 42.25C31.2396 42.25 31.1666 42.25 31.1666 42.1771C31.0208 42.1042 30.9479 41.9583 30.9479 41.8854V40.7917H30.5833C30 40.7917 29.4896 40.2812 29.4896 39.6979V36.7812C29.4896 36.1979 30 35.6875 30.5833 35.6875H35.6875C36.2708 35.6875 36.7812 36.1979 36.7812 36.7812V39.6979C36.7812 40.2812 36.2708 40.7917 35.6875 40.7917H33.6458L31.5312 42.1771C31.4583 42.25 31.3854 42.25 31.3125 42.25ZM30.5833 36.4167C30.3646 36.4167 30.2187 36.5625 30.2187 36.7812V39.6979C30.2187 39.9167 30.3646 40.0625 30.5833 40.0625H31.3125C31.5312 40.0625 31.6771 40.2083 31.6771 40.4271V41.2292L33.2812 40.1354C33.3541 40.0625 33.4271 40.0625 33.5 40.0625H35.6875C35.9062 40.0625 36.0521 39.9167 36.0521 39.6979V36.7812C36.0521 36.5625 35.9062 36.4167 35.6875 36.4167H30.5833Z" fill="#F4C542"/>
</g>
</g>
<defs>
<filter id="filter0_d_47_47" x="0" y="0" width="67" height="67" filterUnits="userSpaceOnUse" color-interpolation-filters="sRGB">
<feFlood flood-opacity="0" result="BackgroundImageFix"/>
<feColorMatrix in="SourceAlpha" type="matrix" values="0 0 0 0 0 0 0 0 0 0 0 0 0 0 0 0 0 0 127 0" result="hardAlpha"/>
<feOffset/>
<feGaussianBlur stdDeviation="2"/>
<feComposite in2="hardAlpha" operator="out"/>
<feColorMatrix type="matrix" values="0 0 0 0 0 0 0 0 0 0 0 0 0 0 0 0 0 0 0.15 0"/>
<feBlend mode="normal" in2="BackgroundImageFix" result="effect1_dropShadow_47_47"/>
<feBlend mode="normal" in="SourceGraphic" in2="effect1_dropShadow_47_47" result="shape"/>
</filter>
<clipPath id="clip0_47_47">
<rect width="35" height="35" fill="white" transform="translate(16 16)"/>
</clipPath>
</defs>
</svg>
