<svg width="50" height="50" viewBox="0 0 50 50" fill="none" xmlns="http://www.w3.org/2000/svg">
<path d="M35.9375 6.25H14.0625C12.334 6.25 10.9375 7.64648 10.9375 9.375V40.625C10.9375 42.3535 12.334 43.75 14.0625 43.75H35.9375C37.666 43.75 39.0625 42.3535 39.0625 40.625V9.375C39.0625 7.64648 37.666 6.25 35.9375 6.25ZM35.1562 27.3438V39.8438H30.4688V27.3438H35.1562ZM35.1562 19.5312V24.2188H30.4688V19.5312H35.1562ZM27.3438 35.1562V39.8438H22.6562V35.1562H27.3438ZM27.3438 27.3438V32.0312H22.6562V27.3438H27.3438ZM27.3438 19.5312V24.2188H22.6562V19.5312H27.3438ZM19.5312 35.1562V39.8438H14.8438V35.1562H19.5312ZM19.5312 27.3438V32.0312H14.8438V27.3438H19.5312ZM19.5312 19.5312V24.2188H14.8438V19.5312H19.5312ZM14.8438 14.8438V10.1562H35.1562V14.8438H14.8438Z" fill="#0A2647"/>
</svg>
