<svg width="50" height="50" viewBox="0 0 50 50" fill="none" xmlns="http://www.w3.org/2000/svg">
<path d="M35.73 21.2653C36.9792 20.0161 37.9786 19.2665 38.7281 18.517C42.7255 14.5196 46.7229 8.27361 44.2245 5.77522C41.7261 3.27682 35.73 7.27425 31.7326 11.2717C30.9831 12.0212 30.2335 13.0206 28.9843 14.2698L11.4956 6.2749C9.7467 5.52538 7.74799 5.77522 6.49879 7.02441L4.99976 8.27361L21.4892 22.5145C18.2412 26.5119 14.7435 30.2595 12.9946 32.508L10.2464 31.009C8.99719 30.2595 7.24831 30.2595 6.24895 31.5087L5.49943 32.2582L12.4949 37.5048L17.4917 44.5003L18.2412 43.7508C19.2406 42.7514 19.4904 41.0026 18.7409 39.7534L17.4917 37.0051C19.7403 35.2563 23.4879 31.7585 27.4853 28.5106L41.7261 45L42.9753 43.7508C44.2245 42.5016 44.4744 40.5029 43.7249 38.754L35.73 21.2653Z" fill="#0A2647"/>
</svg>
