<svg width="50" height="50" viewBox="0 0 50 50" fill="none" xmlns="http://www.w3.org/2000/svg">
<path d="M46.0649 25.895H34.7049C34.4856 25.8951 34.2733 25.9723 34.1051 26.113C33.9369 26.2538 33.8236 26.4492 33.7849 26.665C33.545 27.9606 33.0338 29.1909 32.2849 30.275C32.1546 30.4593 32.0946 30.6841 32.1157 30.9088C32.1368 31.1335 32.2376 31.3432 32.3999 31.5L40.4299 39.5C40.6069 39.6753 40.8457 39.7741 41.0949 39.775H41.1349C41.2653 39.7694 41.3931 39.7368 41.5101 39.6791C41.6272 39.6214 41.731 39.54 41.8149 39.44C44.7962 35.9013 46.6076 31.5256 46.9999 26.915C47.0081 26.787 46.99 26.6587 46.9467 26.538C46.9035 26.4173 46.836 26.3067 46.7484 26.213C46.6608 26.1194 46.555 26.0446 46.4375 25.9933C46.3199 25.9421 46.1931 25.9154 46.0649 25.915V25.895Z" fill="#0A2647"/>
<path d="M31.07 32.8001C30.9149 32.6453 30.7106 32.5496 30.4924 32.5296C30.2742 32.5095 30.0558 32.5662 29.875 32.6901C28.7223 33.4829 27.407 34.0081 26.0252 34.2273C24.6435 34.4465 23.2302 34.3542 21.8887 33.957C20.5472 33.5599 19.3114 32.8681 18.2716 31.9321C17.2318 30.996 16.4143 29.8395 15.8789 28.547C15.3434 27.2545 15.1036 25.8586 15.1769 24.4615C15.2501 23.0644 15.6346 21.7013 16.3023 20.4719C16.97 19.2424 17.904 18.1778 19.036 17.3556C20.168 16.5335 21.4694 15.9747 22.845 15.7201C23.0605 15.6804 23.2553 15.5668 23.3959 15.3989C23.5365 15.2309 23.614 15.0191 23.615 14.8001V3.44006C23.614 3.31032 23.5864 3.18216 23.534 3.06349C23.4815 2.94482 23.4053 2.83815 23.31 2.75006C23.2149 2.65936 23.1013 2.59012 22.9771 2.54699C22.8529 2.50387 22.7209 2.48787 22.59 2.50006C19.0624 2.80782 15.6568 3.94241 12.6494 5.81186C9.64205 7.68131 7.11742 10.233 5.28019 13.2602C3.44295 16.2874 2.34478 19.7048 2.0747 23.2356C1.80461 26.7663 2.3702 30.3111 3.72563 33.5825C5.08106 36.8539 7.18819 39.7599 9.87624 42.065C12.5643 44.3701 15.7576 46.0095 19.1975 46.8503C22.6373 47.691 26.2268 47.7095 29.6751 46.9041C33.1234 46.0988 36.3334 44.4924 39.045 42.2151C39.1435 42.131 39.224 42.0278 39.2815 41.9118C39.3391 41.7958 39.3726 41.6694 39.38 41.5401C39.3852 41.4099 39.3635 41.2802 39.3162 41.1588C39.2689 41.0375 39.197 40.9273 39.105 40.8351L31.07 32.8001Z" fill="#0A2647"/>
<path d="M26.26 15.725C28.1187 16.0774 29.8282 16.9814 31.1659 18.3191C32.5036 19.6568 33.4075 21.3663 33.76 23.225C33.7993 23.4456 33.9161 23.6449 34.0894 23.787C34.2626 23.9291 34.481 24.0046 34.705 24H46.065C46.1932 23.9995 46.32 23.9729 46.4376 23.9216C46.5551 23.8704 46.661 23.7956 46.7485 23.702C46.8361 23.6083 46.9036 23.4977 46.9469 23.377C46.9901 23.2562 47.0082 23.1279 47 23C46.5536 17.7125 44.2504 12.7537 40.4983 9.00162C36.7463 5.24955 31.7874 2.94636 26.5 2.49996C26.372 2.49178 26.2437 2.50986 26.123 2.55311C26.0023 2.59635 25.8917 2.66384 25.798 2.75143C25.7043 2.83901 25.6296 2.94483 25.5783 3.06238C25.5271 3.17993 25.5004 3.30673 25.5 3.43496V14.8C25.5004 15.0182 25.5763 15.2296 25.7148 15.3982C25.8534 15.5668 26.046 15.6822 26.26 15.725Z" fill="#0A2647"/>
</svg>
